#define foo_width 16
#define foo_height 16
static char foo_bits[] = {
   0x00, 0x00, 0x30, 0x00, 0xf0, 0x00, 0xf0, 0x03, 0xf0, 0x0f, 0xf0, 0x0f,
   0xf0, 0x03, 0xf0, 0x00, 0x30, 0x00, 0x00, 0x00, 0x00, 0x00, 0x00, 0x00,
   0x00, 0x00, 0x00, 0x00, 0x00, 0x00, 0x00, 0x00};
