#define pullrt2_width 16
#define pullrt2_height 16
static char pullrt2_bits[] = {
   0x00, 0x00, 0x30, 0x00, 0xd0, 0x00, 0x10, 0x03, 0x10, 0x0c, 0x10, 0x0c,
   0x10, 0x03, 0xd0, 0x00, 0x30, 0x00, 0x00, 0x00, 0x00, 0x00, 0x00, 0x00,
   0x00, 0x00, 0x00, 0x00, 0x00, 0x00, 0x00, 0x00};
